#!OML:ASF F:\VICON\USERDATA\INSTALL\rory3\rory3.ASF
:FULLY-SPECIFIED
:DEGREES
152
root -0.474905 16.8798 2.76662 300.187 50.9729 -218.93
lowerback 5.89943 6.97065 19.7601
upperback -4.48171 9.85005 14.9635
thorax -7.70506 3.48359 4.73403
lowerneck -26.5741 -5.91094 -19.8168
upperneck -9.71759 -1.21836 7.25108
head 1.08134 0.755781 5.35806
rclavicle 2.74323e-014 3.89618e-014
rhumerus 81.9331 -23.8119 -8.9255
rradius 38.5079
rwrist 19.4507
rhand -35.3689 102.496
rfingers 7.12502
rthumb -8.50083 132.305
lclavicle 2.74323e-014 3.89618e-014
lhumerus 63.594 42.6694 27.0444
lradius 31.1334
lwrist 6.40647
lhand -51.4774 -61.44
lfingers 7.12502
lthumb -24.0065 -32.9212
rfemur -75.8412 -39.1235 -42.2978
rtibia 25.1181
rfoot -6.27634 -47.0356
rtoes 14.6013
lfemur -13.9399 3.66661 2.52
ltibia 95.2725
lfoot -9.10441 10.8178
ltoes -0.871801
153
root -0.353763 16.9497 2.55526 299.999 51.7969 -220.094
lowerback 5.69085 7.07902 19.8869
upperback -4.54209 9.95422 14.9757
thorax -7.63165 3.53725 4.69988
lowerneck -27.3025 -6.26871 -20.2706
upperneck -9.5317 -1.37881 7.61321
head 1.25069 0.712518 5.53436
rclavicle -1.25632e-013 1.33583e-013
rhumerus 82.3293 -24.3719 -9.19772
rradius 38.0895
rwrist 20.0927
rhand -38.7822 105.084
rfingers 7.12502
rthumb -11.7936 134.732
lclavicle -1.25632e-013 1.33583e-013
lhumerus 61.865 42.4521 25.9391
lradius 32.356
lwrist 7.64399
lhand -52.0166 -65.4674
lfingers 7.12502
lthumb -24.5234 -37.0177
rfemur -82.0998 -40.2063 -35.7235
rtibia 33.6514
rfoot -0.642048 -42.7188
rtoes 10.1771
lfemur -14.476 3.2666 5.20322
ltibia 94.7463
lfoot -10.3859 11.3527
ltoes 0.947019
154
root -0.229842 17.0038 2.35082 299.76 52.7116 -221.187
lowerback 5.49575 7.26312 19.8037
upperback -4.5954 10.1249 15.1232
thorax -7.61361 3.63203 4.91946
lowerneck -28.0305 -6.78281 -21.2913
upperneck -9.20656 -1.55308 7.99319
head 1.46097 0.674854 5.80001
rclavicle -3.77691e-014 -1.90833e-014
rhumerus 82.6777 -24.8177 -9.15846
rradius 37.7695
rwrist 20.7535
rhand -34.9152 102.682
rfingers 7.12502
rthumb -8.06292 132.508
lclavicle -3.77691e-014 -1.90833e-014
lhumerus 59.2083 41.9941 24.5032
lradius 34.3932
lwrist 9.16482
lhand -51.5537 -75.0157
lfingers 7.12502
lthumb -24.0796 -46.5065
rfemur -86.8068 -40.5987 -30.4977
rtibia 41.2828
rfoot 0.176536 -39.4915
rtoes 12.9665
lfemur -15.0871 2.94842 7.58086
ltibia 93.7118
lfoot -11.5119 11.4982
ltoes 1.67858
155
root -0.106134 17.0421 2.15134 299.205 53.5752 -222.406
lowerback 5.38949 7.39717 19.7613
upperback -4.62923 10.2562 15.3422
thorax -7.63927 3.70875 5.19665
lowerneck -28.6503 -7.41057 -22.6667
upperneck -8.86735 -1.7617 8.41185
head 1.63123 0.632635 6.1263
rclavicle 2.50469e-014 2.06736e-014
rhumerus 83.1531 -25.1145 -9.21027
rradius 37.4383
rwrist 21.9052
rhand -37.5805 104.924
rfingers 7.12502
rthumb -10.6346 134.635
lclavicle 2.50469e-014 2.06736e-014
lhumerus 58.1265 41.6298 24.3353
lradius 34.4925
lwrist 9.64924
lhand -51.4141 -81.952
lfingers 7.12502
lthumb -23.9458 -53.4252
rfemur -90.2663 -40.4748 -25.9997
rtibia 48.0956
rfoot -0.0789711 -37.0467
rtoes 13.385
lfemur -15.7203 2.72808 9.83906
ltibia 92.2587
lfoot -11.8795 11.7529
ltoes 1.43379
156
root 0.0126094 17.0716 1.95159 298.961 54.7693 -223.295
lowerback 5.24316 7.55421 19.5189
upperback -4.7377 10.4139 15.504
thorax -7.74873 3.80112 5.50785
lowerneck -28.7683 -8.1314 -24.5555
upperneck -8.7505 -2.05228 9.08602
head 1.7319 0.57283 6.61007
rclavicle -1.86062e-013 -3.18055e-014
rhumerus 83.738 -25.1468 -9.11996
rradius 37.0934
rwrist 23.2698
rhand -34.3397 102.758
rfingers 7.12502
rthumb -7.50744 132.605
lclavicle -1.86062e-013 -3.18055e-014
lhumerus 56.846 41.1218 24.6208
lradius 35.1469
lwrist 9.85087
lhand -51.4801 -85.9461
lfingers 7.12502
lthumb -24.009 -57.4277
rfemur -92.7723 -40.2102 -22.2792
rtibia 53.8515
rfoot 0.358294 -35.7881
rtoes 16.7363
lfemur -16.5153 2.66508 11.3685
ltibia 90.4161
lfoot -12.8041 10.975
ltoes -0.76905
157
root 0.127311 17.1018 1.74787 299.231 56.1358 -223.692
lowerback 5.14115 7.76786 19.2453
upperback -4.87823 10.6682 15.5007
thorax -7.88835 3.92871 5.63209
lowerneck -28.8501 -8.59432 -25.8834
upperneck -8.64343 -2.18983 9.39211
head 1.79586 0.554154 6.89631
rclavicle -2.21844e-013 -4.92986e-014
rhumerus 83.8984 -25.2029 -8.66704
rradius 37.1518
rwrist 24.3729
rhand -36.13 103.58
rfingers 7.12502
rthumb -9.23521 133.357
lclavicle -2.21844e-013 -4.92986e-014
lhumerus 55.8377 40.5621 25.0841
lradius 35.6013
lwrist 10.0097
lhand -51.028 90.8839
lfingers 7.12502
lthumb -23.5754 -62.3089
rfemur -94.5255 -39.7491 -19.1293
rtibia 58.5871
rfoot -1.32917 -34.5561
rtoes 16.8844
lfemur -17.4411 2.84369 12.3252
ltibia 88.3262
lfoot -13.7881 10.0508
ltoes -0.738649
158
root 0.254757 17.1047 1.49353 299.741 57.4221 -223.752
lowerback 5.16874 7.97542 19.0369
upperback -4.96687 10.9539 15.393
thorax -8.00958 4.06464 5.58582
lowerneck -29.3373 -8.78773 -26.5045
upperneck -8.2864 -2.06455 9.25793
head 1.93311 0.619246 6.94804
rclavicle 1.95604e-013 1.19271e-013
rhumerus 83.5228 -25.4261 -7.88646
rradius 37.5836
rwrist 24.8762
rhand -37.8896 104.564
rfingers 7.12502
rthumb -10.9328 134.26
lclavicle 1.95604e-013 1.19271e-013
lhumerus 54.2902 39.8579 24.8732
lradius 37.1298
lwrist 10.7886
lhand -50.5558 94.7318
lfingers 7.12502
lthumb -23.1224 -66.0994
rfemur -95.0975 -38.7608 -16.5939
rtibia 62.2555
rfoot -2.19019 -33.8055
rtoes 17.7888
lfemur -18.4213 3.35988 12.7438
ltibia 85.9972
lfoot -14.5412 9.60722
ltoes 0.375499
159
root 0.37422 17.0952 1.25186 300.462 58.8713 -223.606
lowerback 5.08635 8.12516 18.6254
upperback -5.12416 11.1524 15.184
thorax -8.16105 4.16846 5.53708
lowerneck -29.7875 -9.00345 -26.918
upperneck -7.9218 -2.0814 9.58738
head 2.11237 0.615949 7.12087
rclavicle -1.62208e-013 8.11041e-014
rhumerus 82.7035 -25.5367 -6.73966
rradius 38.3082
rwrist 24.8351
rhand -37.6062 104.676
rfingers 7.12502
rthumb -10.6595 134.386
lclavicle -1.62208e-013 8.11041e-014
lhumerus 53.1053 39.0161 24.7199
lradius 38.4394
lwrist 11.5238
lhand -50.4319 99.2296
lfingers 7.12502
lthumb -23.0036 -70.5823
rfemur -95.4169 -37.9407 -14.1717
rtibia 65.172
rfoot -3.19858 -32.0307
rtoes 14.8496
lfemur -19.4136 4.4135 12.8802
ltibia 83.4719
lfoot -15.0438 9.6738
ltoes 1.43899
160
root 0.47958 17.0785 1.02631 300.983 60.1544 -223.695
lowerback 4.8656 8.2068 18.5247
upperback -5.35873 11.2612 14.848
thorax -8.23902 4.20519 5.21612
lowerneck -30.1232 -8.87203 -26.6745
upperneck -7.59042 -1.91131 9.64982
head 2.23484 0.670761 7.12538
rclavicle -1.1609e-013 -3.65764e-014
rhumerus 81.4373 -25.5618 -5.41487
rradius 39.1011
rwrist 24.314
rhand -35.7209 103.545
rfingers 7.12502
rthumb -8.84044 133.34
lclavicle -1.1609e-013 -3.65764e-014
lhumerus 52.4458 38.0891 24.7741
lradius 39.661
lwrist 11.9379
lhand -50.5238 104.393
lfingers 7.12502
lthumb -23.0918 -75.7563
rfemur -95.2102 -37.1155 -11.8775
rtibia 67.5562
rfoot -3.82087 -30.605
rtoes 13.4897
lfemur -20.3663 5.97875 13.2663
ltibia 80.8427
lfoot -15.6109 9.89623
ltoes 1.7812
161
root 0.569898 17.0647 0.819546 301.94 61.9272 -223.455
lowerback 4.29813 8.25033 17.8762
upperback -5.65589 11.2204 14.4251
thorax -8.26202 4.21273 5.10999
lowerneck -30.4127 -8.87829 -26.8799
upperneck -7.22271 -1.78523 10.0298
head 2.37942 0.729553 7.30488
rclavicle -7.55382e-014 -1.11319e-014
rhumerus 80.1347 -25.4403 -3.683
rradius 39.7311
rwrist 23.4018
rhand -34.7602 102.506
rfingers 7.12502
rthumb -7.9133 132.338
lclavicle -7.55382e-014 -1.11319e-014
lhumerus 51.7912 37.1855 25.1537
lradius 40.8919
lwrist 12.1228
lhand -50.3791 107.182
lfingers 7.12502
lthumb -22.9529 -78.5286
rfemur -94.7222 -36.675 -10.143
rtibia 69.2725
rfoot -4.03948 -29.3122
rtoes 12.5603
lfemur -21.5556 7.86558 12.8986
ltibia 78.1178
lfoot -16.1111 10.4967
ltoes 0.617747
162
root 0.624425 17.0934 0.66761 303.658 64.4878 -222.622
lowerback 3.26112 8.2295 16.248
upperback -6.025 10.9711 13.8556
thorax -8.22664 4.19587 5.38456
lowerneck -30.7074 -8.99258 -27.2331
upperneck -6.8184 -1.7515 10.4999
head 2.55334 0.748843 7.52947
rclavicle -3.13285e-013 1.06549e-013
rhumerus 78.9281 -25.209 -1.76241
rradius 40.2465
rwrist 22.4303
rhand -36.9406 103.978
rfingers 7.12502
rthumb -10.0174 133.72
lclavicle -3.13285e-013 1.06549e-013
lhumerus 50.8659 36.2555 25.4692
lradius 42.3896
lwrist 12.3298
lhand -50.1394 107.532
lfingers 7.12502
lthumb -22.7229 -78.8499
rfemur -93.0639 -35.7203 -11.45
rtibia 70.6917
rfoot -5.078 -29.6922
rtoes 14.8254
lfemur -23.1293 9.95539 11.6071
ltibia 75.5368
lfoot -16.77 11.2794
ltoes -0.542009
163
root 0.741953 16.9994 0.409038 304.869 66.1473 -222.117
lowerback 2.64179 8.19622 15.8142
upperback -6.37044 10.8589 13.2004
thorax -8.18124 4.1481 4.93141
lowerneck -31.0523 -8.87967 -26.7671
upperneck -6.38029 -1.71178 10.7475
head 2.74288 0.736114 7.55687
rclavicle 3.69739e-013 3.81667e-014
rhumerus 77.6377 -24.9686 -0.459133
rradius 40.5434
rwrist 21.6469
rhand -37.5041 105.046
rfingers 7.12502
rthumb -10.5609 134.761
lclavicle 3.69739e-013 3.81667e-014
lhumerus 50.2476 35.2488 25.3951
lradius 43.9374
lwrist 12.4653
lhand -49.9943 106.93
lfingers 7.12502
lthumb -22.5836 -78.2312
rfemur -92.3645 -35.9062 -8.44513
rtibia 71.1487
rfoot -8.24896 -26.0153
rtoes 5.72261
lfemur -24.3294 12.1364 10.5491
ltibia 72.4767
lfoot -17.1937 12.5874
ltoes 0.136892
164
root 0.830505 16.9641 0.200811 305.787 67.2062 -221.754
lowerback 2.39853 8.20228 16.1565
upperback -6.69789 10.9005 12.5897
thorax -8.21577 4.10795 4.10336
lowerneck -31.2964 -8.88564 -26.6339
upperneck -5.92297 -1.76302 11.3605
head 2.95515 0.704151 7.75641
rclavicle 1.04163e-013 -1.43125e-014
rhumerus 76.4843 -24.633 0.55608
rradius 40.6317
rwrist 20.969
rhand -34.5517 103.263
rfingers 7.12502
rthumb -7.71208 133.103
lclavicle 1.04163e-013 -1.43125e-014
lhumerus 49.6478 34.2114 25.1564
lradius 45.2855
lwrist 12.666
lhand -49.5314 105.893
lfingers 7.12502
lthumb -22.1393 -77.1408
rfemur -90.8945 -34.9585 -6.56998
rtibia 71.4375
rfoot -6.62337 -26.9094
rtoes 11.0672
lfemur -25.481 14.872 10.428
ltibia 69.7435
lfoot -17.6809 13.5329
ltoes 0.393801
165
root 0.890801 16.966 0.0430563 307.248 68.8127 -220.86
lowerback 1.86245 8.17062 15.4718
upperback -7.02037 10.7895 12.0543
thorax -8.26488 4.07932 3.90842
lowerneck -31.4102 -9.06077 -27.07
upperneck -5.4845 -1.88016 12.2338
head 3.16575 0.667117 8.1294
rclavicle 1.31993e-013 1.04958e-013
rhumerus 75.6417 -24.2276 1.73594
rradius 40.481
rwrist 20.2063
rhand -32.5524 101.279
rfingers 7.12502
rthumb -5.78205 131.181
lclavicle 1.31993e-013 1.04958e-013
lhumerus 48.7285 33.1156 24.6503
lradius 46.3794
lwrist 13.2721
lhand -49.5107 109.271
lfingers 7.12502
lthumb -22.1194 -80.5166
rfemur -89.0244 -33.8682 -6.34379
rtibia 71.6066
rfoot -9.10649 -26.6072
rtoes 6.90581
lfemur -26.9275 17.7436 9.76546
ltibia 67.2001
lfoot -17.9786 14.217
ltoes -0.738895
166
root 0.96497 16.9192 -0.120019 309.165 70.6109 -219.529
lowerback 1.07753 8.08938 14.2685
upperback -7.33289 10.5474 11.5425
thorax -8.24814 4.03638 4.03588
lowerneck -31.5528 -9.16267 -27.3398
upperneck -4.97427 -1.94685 12.847
head 3.38597 0.63397 8.39056
rclavicle -1.31198e-013 -9.22361e-014
rhumerus 74.9368 -23.7938 2.95361
rradius 40.2687
rwrist 19.3634
rhand -33.8899 101.528
rfingers 7.12502
rthumb -7.07324 131.39
lclavicle -1.31198e-013 -9.22361e-014
lhumerus 47.6837 31.8869 23.6462
lradius 47.1541
lwrist 14.1983
lhand -50.2163 116.894
lfingers 7.12502
lthumb -22.7967 -88.2215
rfemur -87.2404 -33.3716 -5.65135
rtibia 71.4405
rfoot -9.67153 -26.5494
rtoes 8.82047
lfemur -28.4844 20.3717 8.61923
ltibia 64.6528
lfoot -18.3532 14.6954
ltoes -1.33202
